<svg width="735" height="814" viewBox="0 0 735 814" fill="none" xmlns="http://www.w3.org/2000/svg">
<g id="light">
<path id="light-beam" d="M266.5 44.5L306 35.5L734.5 814H293L266.5 44.5Z" fill="#556CE1"/>
<path id="Rectangle 3" d="M142.184 47H151.612L157 765H135L142.184 47Z" fill="#2C3D94"/>
<path id="Rectangle 4" d="M36 810C36 789.013 53.0132 772 74 772H212C232.987 772 250 789.013 250 810V810H36V810Z" fill="#2C3D94"/>
<rect id="Rectangle 5" x="262.911" y="7" width="15.3734" height="124" transform="rotate(70.5327 262.911 7)" fill="#2C3D94"/>
<rect id="Rectangle 6" x="240" y="9.75" width="56" height="25" rx="9" transform="rotate(-10.0267 240 9.75)" fill="#2C3D94"/>
<ellipse id="Ellipse 5" cx="276.1" cy="27.9461" rx="16.5" ry="4.62416" transform="rotate(-8.76946 276.1 27.9461)" fill="#FEFFD6"/>
<rect id="Rectangle 7" width="15.3016" height="119.284" transform="matrix(-0.320473 0.947258 0.938071 0.346443 35.9037 7)" fill="#2C3D94"/>
<rect id="Rectangle 8" width="53.6727" height="24.9682" rx="9" transform="matrix(-0.983362 -0.181656 -0.166852 0.985982 56.9457 9.75)" fill="#2C3D94"/>
<ellipse id="Ellipse 6" cx="15.8092" cy="4.61964" rx="15.8092" ry="4.61964" transform="matrix(-0.987259 -0.159121 -0.146063 0.989275 38.6761 25.8916)" fill="#FEFFD6"/>
<g id="guy">
<path id="Rectangle 14" d="M447.187 628.504C448.716 622.642 452.797 617.776 458.302 615.247V615.247C466.34 611.556 475.845 613.523 481.758 620.102L482.07 620.449C486.624 625.516 488.413 632.489 486.861 639.122L469.749 712.283L427.879 702.49L447.187 628.504Z" fill="black"/>
<rect id="Rectangle 15" x="471.531" y="635.54" width="16.11" height="49.1697" transform="rotate(-23.3907 471.531 635.54)" fill="black"/>
<path id="Rectangle 16" d="M494.879 666.144L524.803 677.234C528.473 678.594 530.346 682.672 528.985 686.342V686.342C527.649 689.948 523.682 691.83 520.044 690.585L491.014 680.644L494.879 666.144Z" fill="black"/>
<rect id="Rectangle 17" x="456.673" y="616.144" width="16.11" height="49.1697" transform="rotate(55.7322 456.673 616.144)" fill="black"/>
<path id="Rectangle 18" d="M431.024 644.847L425.78 676.326C425.137 680.187 421.485 682.796 417.624 682.152V682.152C413.831 681.521 411.234 677.979 411.771 674.172L416.055 643.788L431.024 644.847Z" fill="black"/>
<path id="Rectangle 19" d="M429.26 697.171L449.598 702.624C449.598 702.624 439.232 744.8 438.776 745.312C438.321 745.824 413.98 754.158 413.98 754.158L429.26 697.171Z" fill="black"/>
<path id="Rectangle 20" d="M420.353 738.801L427.379 740.145L438.879 745.144L417.539 777.99C414.253 783.048 407.393 784.309 402.524 780.749V780.749C397.822 777.313 396.811 770.71 400.268 766.024L420.353 738.801Z" fill="black"/>
<path id="Rectangle 21" d="M443.648 706.599L462.768 697.434C462.768 697.434 482.363 736.194 482.348 736.88C482.333 737.566 469.149 759.803 469.149 759.803L443.648 706.599Z" fill="black"/>
<path id="Rectangle 22" d="M463.793 746.914L469.319 718.887L482.34 736.884L488.433 778.063C489.237 783.495 485.49 788.551 480.059 789.363V789.363C474.607 790.179 469.53 786.406 468.738 780.951L463.793 746.914Z" fill="black"/>
<path id="Ellipse 10" d="M499.379 598C499.379 606.837 491.768 614 482.379 614C472.99 614 465.379 606.837 465.379 598C465.379 589.163 472.99 582 482.379 582C491.768 582 499.379 589.163 499.379 598Z" fill="black"/>
</g>
</g>
</svg>
